<svg xmlns="http://www.w3.org/2000/svg" xmlns:xlink="http://www.w3.org/1999/xlink" version="1.1" width="200" height="200" viewBox="0 0 200 200" xml:space="preserve">
<desc>Created with Fabric.js 2.7.0</desc>
<defs>
</defs>
<g transform="matrix(1 0 0 1 49.55218500000001 56)" id="uidcll8mrtef">
<path style="stroke: rgb(23,22,24); stroke-width: 1; stroke-dasharray:; stroke-linecap: butt; stroke-dashoffset: 0; stroke-linejoin: miter; stroke-miterlimit: 4; fill: rgb(74,144,226); fill-rule: nonzero; opacity: 1;" transform=" translate(-16.500005, -16.500045)" d="M 57.55219 -3.68403 v 40.36815 h -82.10437 v -40.36815 z" stroke-linecap="round"/>
</g>
<g transform="matrix(1 0 0 1 49.55218500000001 95.684075)" id="uidugcgfxdms">
<path style="stroke: rgb(19,18,19); stroke-width: 1; stroke-dasharray:; stroke-linecap: butt; stroke-dashoffset: 0; stroke-linejoin: miter; stroke-miterlimit: 4; fill: rgb(74,144,226); fill-rule: nonzero; opacity: 1;" transform=" translate(-16.500005, -16.500045)" d="M 57.55219 -3.68403 v 40.36815 h -82.10437 v -40.36815 z" stroke-linecap="round"/>
</g>
<g transform="matrix(1 0 0 1 150.29411764705884 56.18407500000001)" id="uidonhciu4af">
<path style="stroke: rgb(23,22,24); stroke-width: 1; stroke-dasharray:; stroke-linecap: butt; stroke-dashoffset: 0; stroke-linejoin: miter; stroke-miterlimit: 4; fill: rgb(74,144,226); fill-rule: nonzero; opacity: 1;" transform=" translate(-16.500005, -16.500045)" d="M 57.55219 -3.68403 v 40.36815 h -82.10437 v -40.36815 z" stroke-linecap="round"/>
</g>
<g transform="matrix(1 0 0 1 150.5198358413133 95.68081703050608)" id="uidxeq9lnbos">
<path style="stroke: rgb(23,22,24); stroke-width: 1; stroke-dasharray:; stroke-linecap: butt; stroke-dashoffset: 0; stroke-linejoin: miter; stroke-miterlimit: 4; fill: rgb(74,144,226); fill-rule: nonzero; opacity: 1;" transform=" translate(-16.500005, -16.500045)" d="M 57.55219 -3.68403 v 40.36815 h -82.10437 v -40.36815 z" stroke-linecap="round"/>
</g>
<g transform="matrix(1 0 0 1 54.518575 135.731270622435)" id="uidkcgyw9pdu">
<path style="stroke: rgb(10,10,10); stroke-width: 1; stroke-dasharray:; stroke-linecap: butt; stroke-dashoffset: 0; stroke-linejoin: miter; stroke-miterlimit: 4; fill: rgb(255,255,255); fill-rule: nonzero; opacity: 1;" transform=" translate(-16.500035000000004, -16.500045)" d="M 62.51861 -3.68403 v 40.36815 h -92.03715 v -40.36815 z" stroke-linecap="round"/>
</g>
<g transform="matrix(1 0 0 1 145.86241153397515 135.636879377565)" id="uidyrpgntwni">
<path style="stroke: rgb(10,10,10); stroke-width: 1; stroke-dasharray:; stroke-linecap: butt; stroke-dashoffset: 0; stroke-linejoin: miter; stroke-miterlimit: 4; fill: rgb(255,255,255); fill-rule: nonzero; opacity: 1;" transform=" translate(-16.500035000000004, -16.500045)" d="M 62.51861 -3.68403 v 40.36815 h -92.03715 v -40.36815 z" stroke-linecap="round"/>
</g>
<g transform="matrix(1 0 0 1 50 55.05020975832193)" style="" id="uidzbbkftsia">
		
<g xml:space="preserve" style="stroke: rgb(1,109,64); stroke-width: 0; stroke-dasharray:none; stroke-linecap: butt; stroke-dashoffset: 0; stroke-linejoin: miter; stroke-miterlimit: 4; fill: rgb(15,15,15); fill-rule: nonzero; opacity: 1; white-space: pre;"><path d="M-13.33-1.34L-13.33-1.34Q-13.33-2.06-14.01-2.41L-14.01-2.41Q-14.45-2.63-15.08-2.63L-15.08-2.63L-17.73-2.63L-17.73-2.38L-16.97-2.38L-16.97 2.79L-17.73 2.79L-17.73 3.04L-15.05 3.04Q-13.83 3.04-13.26 2.26L-13.26 2.26Q-12.97 1.86-12.97 1.38L-12.97 1.38Q-12.97 0.62-13.64 0.20L-13.64 0.20Q-13.95 0.03-14.36-0.05L-14.36-0.05Q-13.68-0.31-13.42-0.91L-13.42-0.91Q-13.33-1.14-13.33-1.34ZM-16.16-2.38L-15.30-2.38Q-14.33-2.38-14.20-1.52L-14.20-1.52Q-14.18-1.40-14.18-1.27L-14.18-1.27Q-14.18-0.65-14.66-0.34L-14.66-0.34Q-14.94-0.16-15.32-0.16L-15.32-0.16L-16.16-0.16L-16.16-2.38ZM-16.16 0.09L-15.14 0.09Q-14.28 0.09-13.99 0.82L-13.99 0.82Q-13.88 1.08-13.88 1.39L-13.88 1.39Q-13.88 2.12-14.35 2.53L-14.35 2.53Q-14.66 2.79-15.09 2.79L-15.09 2.79L-16.16 2.79L-16.16 0.09Z"/><path d="M-10.20-0.83L-10.20-0.83Q-9.53-0.83-9.32-0.28L-9.32-0.28Q-9.24-0.10-9.24 0.11L-9.24 0.11Q-9.24 0.58-9.69 0.69L-9.69 0.69Q-9.93 0.73-10.37 0.72L-10.37 0.72L-11.37 0.70Q-11.32-0.39-10.66-0.72L-10.66-0.72Q-10.44-0.83-10.20-0.83ZM-8.55 2.13L-8.55 2.13L-8.79 2.05Q-9.12 2.76-9.86 2.86L-9.86 2.86Q-9.95 2.87-10.03 2.87L-10.03 2.87Q-11.03 2.87-11.28 1.69L-11.28 1.69Q-11.36 1.36-11.37 0.96L-11.37 0.96L-10.23 0.98Q-9.08 1.00-8.75 0.76L-8.75 0.76Q-8.50 0.57-8.50 0.22L-8.50 0.22Q-8.50-0.42-9.15-0.80L-9.15-0.80Q-9.61-1.07-10.21-1.07L-10.21-1.07Q-11.39-1.07-11.90-0.09L-11.90-0.09Q-12.17 0.42-12.17 1.06L-12.17 1.06Q-12.17 2.23-11.33 2.80L-11.33 2.80Q-10.83 3.13-10.19 3.13L-10.19 3.13Q-9.17 3.13-8.68 2.39L-8.68 2.39Q-8.61 2.26-8.55 2.13Z"/><path d="M-4.64 2.04L-4.57 3.04L-3.22 3.04Q-3.22 2.83-3.36 2.81L-3.36 2.81Q-3.40 2.80-3.46 2.80L-3.46 2.80L-3.93 2.80L-3.95-3.10L-5.55-3.10L-5.55-2.86L-4.65-2.86L-4.65-0.56Q-5.12-1.07-5.90-1.07L-5.90-1.07Q-6.94-1.07-7.47-0.14L-7.47-0.14Q-7.79 0.42-7.79 1.13L-7.79 1.13Q-7.79 2.30-7.05 2.84L-7.05 2.84Q-6.64 3.13-6.14 3.13L-6.14 3.13Q-5.11 3.11-4.64 2.04L-4.64 2.04ZM-6.99 1.02L-6.99 1.02Q-6.99-0.31-6.27-0.71L-6.27-0.71Q-6.04-0.83-5.77-0.83L-5.77-0.83Q-5.08-0.83-4.79-0.10L-4.79-0.10Q-4.63 0.30-4.63 0.84L-4.63 0.84Q-4.63 1.97-5.19 2.48L-5.19 2.48Q-5.49 2.75-5.88 2.75L-5.88 2.75Q-6.66 2.75-6.89 1.81L-6.89 1.81Q-6.99 1.46-6.99 1.02Z"/><path d="M-0.59 2.80L-0.59 2.80L-1.27 2.80L-1.27 0.92Q-1.27 0.06-0.75-0.46L-0.75-0.46Q-0.54-0.65-0.40-0.66L-0.40-0.66Q-0.24-0.66-0.10-0.43L-0.10-0.43Q0.05-0.16 0.18-0.13L0.18-0.13Q0.24-0.11 0.29-0.11L0.29-0.11Q0.58-0.11 0.65-0.38L0.65-0.38Q0.67-0.44 0.67-0.49L0.67-0.49Q0.67-0.92 0.24-1.01L0.24-1.01Q0.14-1.03 0.06-1.03L0.06-1.03Q-0.51-1.03-0.95-0.55L-0.95-0.55Q-1.16-0.32-1.28-0.04L-1.28-0.04L-1.32-0.98L-2.69-0.98L-2.69-0.74L-1.98-0.74L-1.98 2.23Q-1.98 2.67-2.23 2.75L-2.23 2.75Q-2.37 2.80-2.69 2.80L-2.69 2.80L-2.69 3.04L-0.36 3.04Q-0.36 2.83-0.50 2.81L-0.50 2.81Q-0.54 2.80-0.59 2.80Z"/><path d="M1.90 1.03L1.90 1.03Q1.90-0.44 2.70-0.76L2.70-0.76Q2.91-0.83 3.13-0.83L3.13-0.83Q4.18-0.83 4.35 0.49L4.35 0.49Q4.38 0.71 4.38 0.99L4.38 0.99Q4.38 2.57 3.51 2.85L3.51 2.85Q3.34 2.90 3.16 2.90L3.16 2.90Q2.21 2.90 1.96 1.76L1.96 1.76Q1.90 1.43 1.90 1.03ZM3.16-1.07L3.16-1.07Q2.26-1.07 1.65-0.45L1.65-0.45Q1.10 0.13 1.10 0.99L1.10 0.99Q1.10 2.18 1.96 2.77L1.96 2.77Q2.49 3.13 3.13 3.13L3.13 3.13Q4.04 3.13 4.64 2.49L4.64 2.49Q5.18 1.90 5.18 1.03L5.18 1.03Q5.18-0.16 4.30-0.74L4.30-0.74Q3.79-1.07 3.16-1.07Z"/><path d="M6.74 1.03L6.74 1.03Q6.74-0.44 7.54-0.76L7.54-0.76Q7.75-0.83 7.98-0.83L7.98-0.83Q9.02-0.83 9.19 0.49L9.19 0.49Q9.22 0.71 9.22 0.99L9.22 0.99Q9.22 2.57 8.35 2.85L8.35 2.85Q8.18 2.90 8.01 2.90L8.01 2.90Q7.05 2.90 6.81 1.76L6.81 1.76Q6.74 1.43 6.74 1.03ZM8.01-1.07L8.01-1.07Q7.10-1.07 6.49-0.45L6.49-0.45Q5.94 0.13 5.94 0.99L5.94 0.99Q5.94 2.18 6.81 2.77L6.81 2.77Q7.33 3.13 7.98 3.13L7.98 3.13Q8.88 3.13 9.48 2.49L9.48 2.49Q10.03 1.90 10.03 1.03L10.03 1.03Q10.03-0.16 9.15-0.74L9.15-0.74Q8.63-1.07 8.01-1.07Z"/><path d="M12.53 2.80L12.53 2.80L12.10 2.80L12.10 0.76Q12.13-0.07 12.68-0.48L12.68-0.48Q12.93-0.66 13.19-0.66L13.19-0.66Q13.66-0.66 13.84-0.14L13.84-0.14Q13.91 0.08 13.91 0.37L13.91 0.37L13.91 2.23Q13.91 2.67 13.71 2.75L13.71 2.75Q13.57 2.80 13.25 2.80L13.25 2.80L13.25 3.04L15.28 3.04Q15.28 2.83 15.14 2.81L15.14 2.81Q15.10 2.80 15.05 2.80L15.05 2.80L14.62 2.80L14.62 0.46L14.62 0.38Q14.77-0.31 15.29-0.58L15.29-0.58Q15.49-0.67 15.67-0.67L15.67-0.67Q16.15-0.67 16.35-0.17L16.35-0.17Q16.44 0.06 16.44 0.37L16.44 0.37L16.44 2.23Q16.44 2.67 16.24 2.75L16.24 2.75Q16.10 2.80 15.78 2.80L15.78 2.80L15.78 3.04L17.87 3.04Q17.87 2.83 17.73 2.81L17.73 2.81Q17.69 2.80 17.63 2.80L17.63 2.80L17.15 2.80L17.15 0.46Q17.15-0.51 16.52-0.90L16.52-0.90Q16.24-1.07 15.91-1.07L15.91-1.07Q15.19-1.07 14.75-0.40L14.75-0.40Q14.64-0.23 14.57-0.04L14.57-0.04Q14.40-0.79 13.82-1.00L13.82-1.00Q13.65-1.07 13.47-1.07L13.47-1.07Q12.79-1.07 12.35-0.49L12.35-0.49Q12.19-0.29 12.09-0.03L12.09-0.03L12.06-0.98L10.69-0.98L10.69-0.74L11.39-0.74L11.39 2.23Q11.39 2.67 11.15 2.75L11.15 2.75Q11.01 2.80 10.69 2.80L10.69 2.80L10.69 3.04L12.76 3.04Q12.76 2.84 12.62 2.81L12.62 2.81Q12.57 2.80 12.53 2.80Z"/></g></g>
<g transform="matrix(1 0 0 1 151 54.81354765161878)" style="" id="uidrjvcc6poz">
		
<g xml:space="preserve" style="stroke: rgb(1,109,64); stroke-width: 0; stroke-dasharray:none; stroke-linecap: butt; stroke-dashoffset: 0; stroke-linejoin: miter; stroke-miterlimit: 4; fill: rgb(15,15,15); fill-rule: nonzero; opacity: 1; white-space: pre;"><path d="M-13.33-1.34L-13.33-1.34Q-13.33-2.06-14.01-2.41L-14.01-2.41Q-14.45-2.63-15.08-2.63L-15.08-2.63L-17.73-2.63L-17.73-2.38L-16.97-2.38L-16.97 2.79L-17.73 2.79L-17.73 3.04L-15.05 3.04Q-13.83 3.04-13.26 2.26L-13.26 2.26Q-12.97 1.86-12.97 1.38L-12.97 1.38Q-12.97 0.62-13.64 0.20L-13.64 0.20Q-13.95 0.03-14.36-0.05L-14.36-0.05Q-13.68-0.31-13.42-0.91L-13.42-0.91Q-13.33-1.14-13.33-1.34ZM-16.16-2.38L-15.30-2.38Q-14.33-2.38-14.20-1.52L-14.20-1.52Q-14.18-1.40-14.18-1.27L-14.18-1.27Q-14.18-0.65-14.66-0.34L-14.66-0.34Q-14.94-0.16-15.32-0.16L-15.32-0.16L-16.16-0.16L-16.16-2.38ZM-16.16 0.09L-15.14 0.09Q-14.28 0.09-13.99 0.82L-13.99 0.82Q-13.88 1.08-13.88 1.39L-13.88 1.39Q-13.88 2.12-14.35 2.53L-14.35 2.53Q-14.66 2.79-15.09 2.79L-15.09 2.79L-16.16 2.79L-16.16 0.09Z"/><path d="M-10.20-0.83L-10.20-0.83Q-9.53-0.83-9.32-0.28L-9.32-0.28Q-9.24-0.10-9.24 0.11L-9.24 0.11Q-9.24 0.58-9.69 0.69L-9.69 0.69Q-9.93 0.73-10.37 0.72L-10.37 0.72L-11.37 0.70Q-11.32-0.39-10.66-0.72L-10.66-0.72Q-10.44-0.83-10.20-0.83ZM-8.55 2.13L-8.55 2.13L-8.79 2.05Q-9.12 2.76-9.86 2.86L-9.86 2.86Q-9.95 2.87-10.03 2.87L-10.03 2.87Q-11.03 2.87-11.28 1.69L-11.28 1.69Q-11.36 1.36-11.37 0.96L-11.37 0.96L-10.23 0.98Q-9.08 1.00-8.75 0.76L-8.75 0.76Q-8.50 0.57-8.50 0.22L-8.50 0.22Q-8.50-0.42-9.15-0.80L-9.15-0.80Q-9.61-1.07-10.21-1.07L-10.21-1.07Q-11.39-1.07-11.90-0.09L-11.90-0.09Q-12.17 0.42-12.17 1.06L-12.17 1.06Q-12.17 2.23-11.33 2.80L-11.33 2.80Q-10.83 3.13-10.19 3.13L-10.19 3.13Q-9.17 3.13-8.68 2.39L-8.68 2.39Q-8.61 2.26-8.55 2.13Z"/><path d="M-4.64 2.04L-4.57 3.04L-3.22 3.04Q-3.22 2.83-3.36 2.81L-3.36 2.81Q-3.40 2.80-3.46 2.80L-3.46 2.80L-3.93 2.80L-3.95-3.10L-5.55-3.10L-5.55-2.86L-4.65-2.86L-4.65-0.56Q-5.12-1.07-5.90-1.07L-5.90-1.07Q-6.94-1.07-7.47-0.14L-7.47-0.14Q-7.79 0.42-7.79 1.13L-7.79 1.13Q-7.79 2.30-7.05 2.84L-7.05 2.84Q-6.64 3.13-6.14 3.13L-6.14 3.13Q-5.11 3.11-4.64 2.04L-4.64 2.04ZM-6.99 1.02L-6.99 1.02Q-6.99-0.31-6.27-0.71L-6.27-0.71Q-6.04-0.83-5.77-0.83L-5.77-0.83Q-5.08-0.83-4.79-0.10L-4.79-0.10Q-4.63 0.30-4.63 0.84L-4.63 0.84Q-4.63 1.97-5.19 2.48L-5.19 2.48Q-5.49 2.75-5.88 2.75L-5.88 2.75Q-6.66 2.75-6.89 1.81L-6.89 1.81Q-6.99 1.46-6.99 1.02Z"/><path d="M-0.59 2.80L-0.59 2.80L-1.27 2.80L-1.27 0.92Q-1.27 0.06-0.75-0.46L-0.75-0.46Q-0.54-0.65-0.40-0.66L-0.40-0.66Q-0.24-0.66-0.10-0.43L-0.10-0.43Q0.05-0.16 0.18-0.13L0.18-0.13Q0.24-0.11 0.29-0.11L0.29-0.11Q0.58-0.11 0.65-0.38L0.65-0.38Q0.67-0.44 0.67-0.49L0.67-0.49Q0.67-0.92 0.24-1.01L0.24-1.01Q0.14-1.03 0.06-1.03L0.06-1.03Q-0.51-1.03-0.95-0.55L-0.95-0.55Q-1.16-0.32-1.28-0.04L-1.28-0.04L-1.32-0.98L-2.69-0.98L-2.69-0.74L-1.98-0.74L-1.98 2.23Q-1.98 2.67-2.23 2.75L-2.23 2.75Q-2.37 2.80-2.69 2.80L-2.69 2.80L-2.69 3.04L-0.36 3.04Q-0.36 2.83-0.50 2.81L-0.50 2.81Q-0.54 2.80-0.59 2.80Z"/><path d="M1.90 1.03L1.90 1.03Q1.90-0.44 2.70-0.76L2.70-0.76Q2.91-0.83 3.13-0.83L3.13-0.83Q4.18-0.83 4.35 0.49L4.35 0.49Q4.38 0.71 4.38 0.99L4.38 0.99Q4.38 2.57 3.51 2.85L3.51 2.85Q3.34 2.90 3.16 2.90L3.16 2.90Q2.21 2.90 1.96 1.76L1.96 1.76Q1.90 1.43 1.90 1.03ZM3.16-1.07L3.16-1.07Q2.26-1.07 1.65-0.45L1.65-0.45Q1.10 0.13 1.10 0.99L1.10 0.99Q1.10 2.18 1.96 2.77L1.96 2.77Q2.49 3.13 3.13 3.13L3.13 3.13Q4.04 3.13 4.64 2.49L4.64 2.49Q5.18 1.90 5.18 1.03L5.18 1.03Q5.18-0.16 4.30-0.74L4.30-0.74Q3.79-1.07 3.16-1.07Z"/><path d="M6.74 1.03L6.74 1.03Q6.74-0.44 7.54-0.76L7.54-0.76Q7.75-0.83 7.98-0.83L7.98-0.83Q9.02-0.83 9.19 0.49L9.19 0.49Q9.22 0.71 9.22 0.99L9.22 0.99Q9.22 2.57 8.35 2.85L8.35 2.85Q8.18 2.90 8.01 2.90L8.01 2.90Q7.05 2.90 6.81 1.76L6.81 1.76Q6.74 1.43 6.74 1.03ZM8.01-1.07L8.01-1.07Q7.10-1.07 6.49-0.45L6.49-0.45Q5.94 0.13 5.94 0.99L5.94 0.99Q5.94 2.18 6.81 2.77L6.81 2.77Q7.33 3.13 7.98 3.13L7.98 3.13Q8.88 3.13 9.48 2.49L9.48 2.49Q10.03 1.90 10.03 1.03L10.03 1.03Q10.03-0.16 9.15-0.74L9.15-0.74Q8.63-1.07 8.01-1.07Z"/><path d="M12.53 2.80L12.53 2.80L12.10 2.80L12.10 0.76Q12.13-0.07 12.68-0.48L12.68-0.48Q12.93-0.66 13.19-0.66L13.19-0.66Q13.66-0.66 13.84-0.14L13.84-0.14Q13.91 0.08 13.91 0.37L13.91 0.37L13.91 2.23Q13.91 2.67 13.71 2.75L13.71 2.75Q13.57 2.80 13.25 2.80L13.25 2.80L13.25 3.04L15.28 3.04Q15.28 2.83 15.14 2.81L15.14 2.81Q15.10 2.80 15.05 2.80L15.05 2.80L14.62 2.80L14.62 0.46L14.62 0.38Q14.77-0.31 15.29-0.58L15.29-0.58Q15.49-0.67 15.67-0.67L15.67-0.67Q16.15-0.67 16.35-0.17L16.35-0.17Q16.44 0.06 16.44 0.37L16.44 0.37L16.44 2.23Q16.44 2.67 16.24 2.75L16.24 2.75Q16.10 2.80 15.78 2.80L15.78 2.80L15.78 3.04L17.87 3.04Q17.87 2.83 17.73 2.81L17.73 2.81Q17.69 2.80 17.63 2.80L17.63 2.80L17.15 2.80L17.15 0.46Q17.15-0.51 16.52-0.90L16.52-0.90Q16.24-1.07 15.91-1.07L15.91-1.07Q15.19-1.07 14.75-0.40L14.75-0.40Q14.64-0.23 14.57-0.04L14.57-0.04Q14.40-0.79 13.82-1.00L13.82-1.00Q13.65-1.07 13.47-1.07L13.47-1.07Q12.79-1.07 12.35-0.49L12.35-0.49Q12.19-0.29 12.09-0.03L12.09-0.03L12.06-0.98L10.69-0.98L10.69-0.74L11.39-0.74L11.39 2.23Q11.39 2.67 11.15 2.75L11.15 2.75Q11.01 2.80 10.69 2.80L10.69 2.80L10.69 3.04L12.76 3.04Q12.76 2.84 12.62 2.81L12.62 2.81Q12.57 2.80 12.53 2.80Z"/></g></g>
<g transform="matrix(1 0 0 1 50.10611979166666 94.35253533971725)" style="" id="uiduf40ghzje">
		
<g xml:space="preserve" style="stroke: rgb(1,109,64); stroke-width: 0; stroke-dasharray:none; stroke-linecap: butt; stroke-dashoffset: 0; stroke-linejoin: miter; stroke-miterlimit: 4; fill: rgb(15,15,15); fill-rule: nonzero; opacity: 1; white-space: pre;"><path d="M-13.33-1.34L-13.33-1.34Q-13.33-2.06-14.01-2.41L-14.01-2.41Q-14.45-2.63-15.08-2.63L-15.08-2.63L-17.73-2.63L-17.73-2.38L-16.97-2.38L-16.97 2.79L-17.73 2.79L-17.73 3.04L-15.05 3.04Q-13.83 3.04-13.26 2.26L-13.26 2.26Q-12.97 1.86-12.97 1.38L-12.97 1.38Q-12.97 0.62-13.64 0.20L-13.64 0.20Q-13.95 0.03-14.36-0.05L-14.36-0.05Q-13.68-0.31-13.42-0.91L-13.42-0.91Q-13.33-1.14-13.33-1.34ZM-16.16-2.38L-15.30-2.38Q-14.33-2.38-14.20-1.52L-14.20-1.52Q-14.18-1.40-14.18-1.27L-14.18-1.27Q-14.18-0.65-14.66-0.34L-14.66-0.34Q-14.94-0.16-15.32-0.16L-15.32-0.16L-16.16-0.16L-16.16-2.38ZM-16.16 0.09L-15.14 0.09Q-14.28 0.09-13.99 0.82L-13.99 0.82Q-13.88 1.08-13.88 1.39L-13.88 1.39Q-13.88 2.12-14.35 2.53L-14.35 2.53Q-14.66 2.79-15.09 2.79L-15.09 2.79L-16.16 2.79L-16.16 0.09Z"/><path d="M-10.20-0.83L-10.20-0.83Q-9.53-0.83-9.32-0.28L-9.32-0.28Q-9.24-0.10-9.24 0.11L-9.24 0.11Q-9.24 0.58-9.69 0.69L-9.69 0.69Q-9.93 0.73-10.37 0.72L-10.37 0.72L-11.37 0.70Q-11.32-0.39-10.66-0.72L-10.66-0.72Q-10.44-0.83-10.20-0.83ZM-8.55 2.13L-8.55 2.13L-8.79 2.05Q-9.12 2.76-9.86 2.86L-9.86 2.86Q-9.95 2.87-10.03 2.87L-10.03 2.87Q-11.03 2.87-11.28 1.69L-11.28 1.69Q-11.36 1.36-11.37 0.96L-11.37 0.96L-10.23 0.98Q-9.08 1.00-8.75 0.76L-8.75 0.76Q-8.50 0.57-8.50 0.22L-8.50 0.22Q-8.50-0.42-9.15-0.80L-9.15-0.80Q-9.61-1.07-10.21-1.07L-10.21-1.07Q-11.39-1.07-11.90-0.09L-11.90-0.09Q-12.17 0.42-12.17 1.06L-12.17 1.06Q-12.17 2.23-11.33 2.80L-11.33 2.80Q-10.83 3.13-10.19 3.13L-10.19 3.13Q-9.17 3.13-8.68 2.39L-8.68 2.39Q-8.61 2.26-8.55 2.13Z"/><path d="M-4.64 2.04L-4.57 3.04L-3.22 3.04Q-3.22 2.83-3.36 2.81L-3.36 2.81Q-3.40 2.80-3.46 2.80L-3.46 2.80L-3.93 2.80L-3.95-3.10L-5.55-3.10L-5.55-2.86L-4.65-2.86L-4.65-0.56Q-5.12-1.07-5.90-1.07L-5.90-1.07Q-6.94-1.07-7.47-0.14L-7.47-0.14Q-7.79 0.42-7.79 1.13L-7.79 1.13Q-7.79 2.30-7.05 2.84L-7.05 2.84Q-6.64 3.13-6.14 3.13L-6.14 3.13Q-5.11 3.11-4.64 2.04L-4.64 2.04ZM-6.99 1.02L-6.99 1.02Q-6.99-0.31-6.27-0.71L-6.27-0.71Q-6.04-0.83-5.77-0.83L-5.77-0.83Q-5.08-0.83-4.79-0.10L-4.79-0.10Q-4.63 0.30-4.63 0.84L-4.63 0.84Q-4.63 1.97-5.19 2.48L-5.19 2.48Q-5.49 2.75-5.88 2.75L-5.88 2.75Q-6.66 2.75-6.89 1.81L-6.89 1.81Q-6.99 1.46-6.99 1.02Z"/><path d="M-0.59 2.80L-0.59 2.80L-1.27 2.80L-1.27 0.92Q-1.27 0.06-0.75-0.46L-0.75-0.46Q-0.54-0.65-0.40-0.66L-0.40-0.66Q-0.24-0.66-0.10-0.43L-0.10-0.43Q0.05-0.16 0.18-0.13L0.18-0.13Q0.24-0.11 0.29-0.11L0.29-0.11Q0.58-0.11 0.65-0.38L0.65-0.38Q0.67-0.44 0.67-0.49L0.67-0.49Q0.67-0.92 0.24-1.01L0.24-1.01Q0.14-1.03 0.06-1.03L0.06-1.03Q-0.51-1.03-0.95-0.55L-0.95-0.55Q-1.16-0.32-1.28-0.04L-1.28-0.04L-1.32-0.98L-2.69-0.98L-2.69-0.74L-1.98-0.74L-1.98 2.23Q-1.98 2.67-2.23 2.75L-2.23 2.75Q-2.37 2.80-2.69 2.80L-2.69 2.80L-2.69 3.04L-0.36 3.04Q-0.36 2.83-0.50 2.81L-0.50 2.81Q-0.54 2.80-0.59 2.80Z"/><path d="M1.90 1.03L1.90 1.03Q1.90-0.44 2.70-0.76L2.70-0.76Q2.91-0.83 3.13-0.83L3.13-0.83Q4.18-0.83 4.35 0.49L4.35 0.49Q4.38 0.71 4.38 0.99L4.38 0.99Q4.38 2.57 3.51 2.85L3.51 2.85Q3.34 2.90 3.16 2.90L3.16 2.90Q2.21 2.90 1.96 1.76L1.96 1.76Q1.90 1.43 1.90 1.03ZM3.16-1.07L3.16-1.07Q2.26-1.07 1.65-0.45L1.65-0.45Q1.10 0.13 1.10 0.99L1.10 0.99Q1.10 2.18 1.96 2.77L1.96 2.77Q2.49 3.13 3.13 3.13L3.13 3.13Q4.04 3.13 4.64 2.49L4.64 2.49Q5.18 1.90 5.18 1.03L5.18 1.03Q5.18-0.16 4.30-0.74L4.30-0.74Q3.79-1.07 3.16-1.07Z"/><path d="M6.74 1.03L6.74 1.03Q6.74-0.44 7.54-0.76L7.54-0.76Q7.75-0.83 7.98-0.83L7.98-0.83Q9.02-0.83 9.19 0.49L9.19 0.49Q9.22 0.71 9.22 0.99L9.22 0.99Q9.22 2.57 8.35 2.85L8.35 2.85Q8.18 2.90 8.01 2.90L8.01 2.90Q7.05 2.90 6.81 1.76L6.81 1.76Q6.74 1.43 6.74 1.03ZM8.01-1.07L8.01-1.07Q7.10-1.07 6.49-0.45L6.49-0.45Q5.94 0.13 5.94 0.99L5.94 0.99Q5.94 2.18 6.81 2.77L6.81 2.77Q7.33 3.13 7.98 3.13L7.98 3.13Q8.88 3.13 9.48 2.49L9.48 2.49Q10.03 1.90 10.03 1.03L10.03 1.03Q10.03-0.16 9.15-0.74L9.15-0.74Q8.63-1.07 8.01-1.07Z"/><path d="M12.53 2.80L12.53 2.80L12.10 2.80L12.10 0.76Q12.13-0.07 12.68-0.48L12.68-0.48Q12.93-0.66 13.19-0.66L13.19-0.66Q13.66-0.66 13.84-0.14L13.84-0.14Q13.91 0.08 13.91 0.37L13.91 0.37L13.91 2.23Q13.91 2.67 13.71 2.75L13.71 2.75Q13.57 2.80 13.25 2.80L13.25 2.80L13.25 3.04L15.28 3.04Q15.28 2.83 15.14 2.81L15.14 2.81Q15.10 2.80 15.05 2.80L15.05 2.80L14.62 2.80L14.62 0.46L14.62 0.38Q14.77-0.31 15.29-0.58L15.29-0.58Q15.49-0.67 15.67-0.67L15.67-0.67Q16.15-0.67 16.35-0.17L16.35-0.17Q16.44 0.06 16.44 0.37L16.44 0.37L16.44 2.23Q16.44 2.67 16.24 2.75L16.24 2.75Q16.10 2.80 15.78 2.80L15.78 2.80L15.78 3.04L17.87 3.04Q17.87 2.83 17.73 2.81L17.73 2.81Q17.69 2.80 17.63 2.80L17.63 2.80L17.15 2.80L17.15 0.46Q17.15-0.51 16.52-0.90L16.52-0.90Q16.24-1.07 15.91-1.07L15.91-1.07Q15.19-1.07 14.75-0.40L14.75-0.40Q14.64-0.23 14.57-0.04L14.57-0.04Q14.40-0.79 13.82-1.00L13.82-1.00Q13.65-1.07 13.47-1.07L13.47-1.07Q12.79-1.07 12.35-0.49L12.35-0.49Q12.19-0.29 12.09-0.03L12.09-0.03L12.06-0.98L10.69-0.98L10.69-0.74L11.39-0.74L11.39 2.23Q11.39 2.67 11.15 2.75L11.15 2.75Q11.01 2.80 10.69 2.80L10.69 2.80L10.69 3.04L12.76 3.04Q12.76 2.84 12.62 2.81L12.62 2.81Q12.57 2.80 12.53 2.80Z"/></g></g>
<g transform="matrix(1 0 0 1 149.172366621067 94.92333333333332)" style="" id="uidx58ipdfqp">
		
<g xml:space="preserve" style="stroke: rgb(1,109,64); stroke-width: 0; stroke-dasharray:none; stroke-linecap: butt; stroke-dashoffset: 0; stroke-linejoin: miter; stroke-miterlimit: 4; fill: rgb(15,15,15); fill-rule: nonzero; opacity: 1; white-space: pre;"><path d="M-13.33-1.34L-13.33-1.34Q-13.33-2.06-14.01-2.41L-14.01-2.41Q-14.45-2.63-15.08-2.63L-15.08-2.63L-17.73-2.63L-17.73-2.38L-16.97-2.38L-16.97 2.79L-17.73 2.79L-17.73 3.04L-15.05 3.04Q-13.83 3.04-13.26 2.26L-13.26 2.26Q-12.97 1.86-12.97 1.38L-12.97 1.38Q-12.97 0.62-13.64 0.20L-13.64 0.20Q-13.95 0.03-14.36-0.05L-14.36-0.05Q-13.68-0.31-13.42-0.91L-13.42-0.91Q-13.33-1.14-13.33-1.34ZM-16.16-2.38L-15.30-2.38Q-14.33-2.38-14.20-1.52L-14.20-1.52Q-14.18-1.40-14.18-1.27L-14.18-1.27Q-14.18-0.65-14.66-0.34L-14.66-0.34Q-14.94-0.16-15.32-0.16L-15.32-0.16L-16.16-0.16L-16.16-2.38ZM-16.16 0.09L-15.14 0.09Q-14.28 0.09-13.99 0.82L-13.99 0.82Q-13.88 1.08-13.88 1.39L-13.88 1.39Q-13.88 2.12-14.35 2.53L-14.35 2.53Q-14.66 2.79-15.09 2.79L-15.09 2.79L-16.16 2.79L-16.16 0.09Z"/><path d="M-10.20-0.83L-10.20-0.83Q-9.53-0.83-9.32-0.28L-9.32-0.28Q-9.24-0.10-9.24 0.11L-9.24 0.11Q-9.24 0.58-9.69 0.69L-9.69 0.69Q-9.93 0.73-10.37 0.72L-10.37 0.72L-11.37 0.70Q-11.32-0.39-10.66-0.72L-10.66-0.72Q-10.44-0.83-10.20-0.83ZM-8.55 2.13L-8.55 2.13L-8.79 2.05Q-9.12 2.76-9.86 2.86L-9.86 2.86Q-9.95 2.87-10.03 2.87L-10.03 2.87Q-11.03 2.87-11.28 1.69L-11.28 1.69Q-11.36 1.36-11.37 0.96L-11.37 0.96L-10.23 0.98Q-9.08 1.00-8.75 0.76L-8.75 0.76Q-8.50 0.57-8.50 0.22L-8.50 0.22Q-8.50-0.42-9.15-0.80L-9.15-0.80Q-9.61-1.07-10.21-1.07L-10.21-1.07Q-11.39-1.07-11.90-0.09L-11.90-0.09Q-12.17 0.42-12.17 1.06L-12.17 1.06Q-12.17 2.23-11.33 2.80L-11.33 2.80Q-10.83 3.13-10.19 3.13L-10.19 3.13Q-9.17 3.13-8.68 2.39L-8.68 2.39Q-8.61 2.26-8.55 2.13Z"/><path d="M-4.64 2.04L-4.57 3.04L-3.22 3.04Q-3.22 2.83-3.36 2.81L-3.36 2.81Q-3.40 2.80-3.46 2.80L-3.46 2.80L-3.93 2.80L-3.95-3.10L-5.55-3.10L-5.55-2.86L-4.65-2.86L-4.65-0.56Q-5.12-1.07-5.90-1.07L-5.90-1.07Q-6.94-1.07-7.47-0.14L-7.47-0.14Q-7.79 0.42-7.79 1.13L-7.79 1.13Q-7.79 2.30-7.05 2.84L-7.05 2.84Q-6.64 3.13-6.14 3.13L-6.14 3.13Q-5.11 3.11-4.64 2.04L-4.64 2.04ZM-6.99 1.02L-6.99 1.02Q-6.99-0.31-6.27-0.71L-6.27-0.71Q-6.04-0.83-5.77-0.83L-5.77-0.83Q-5.08-0.83-4.79-0.10L-4.79-0.10Q-4.63 0.30-4.63 0.84L-4.63 0.84Q-4.63 1.97-5.19 2.48L-5.19 2.48Q-5.49 2.75-5.88 2.75L-5.88 2.75Q-6.66 2.75-6.89 1.81L-6.89 1.81Q-6.99 1.46-6.99 1.02Z"/><path d="M-0.59 2.80L-0.59 2.80L-1.27 2.80L-1.27 0.92Q-1.27 0.06-0.75-0.46L-0.75-0.46Q-0.54-0.65-0.40-0.66L-0.40-0.66Q-0.24-0.66-0.10-0.43L-0.10-0.43Q0.05-0.16 0.18-0.13L0.18-0.13Q0.24-0.11 0.29-0.11L0.29-0.11Q0.58-0.11 0.65-0.38L0.65-0.38Q0.67-0.44 0.67-0.49L0.67-0.49Q0.67-0.92 0.24-1.01L0.24-1.01Q0.14-1.03 0.06-1.03L0.06-1.03Q-0.51-1.03-0.95-0.55L-0.95-0.55Q-1.16-0.32-1.28-0.04L-1.28-0.04L-1.32-0.98L-2.69-0.98L-2.69-0.74L-1.98-0.74L-1.98 2.23Q-1.98 2.67-2.23 2.75L-2.23 2.75Q-2.37 2.80-2.69 2.80L-2.69 2.80L-2.69 3.04L-0.36 3.04Q-0.36 2.83-0.50 2.81L-0.50 2.81Q-0.54 2.80-0.59 2.80Z"/><path d="M1.90 1.03L1.90 1.03Q1.90-0.44 2.70-0.76L2.70-0.76Q2.91-0.83 3.13-0.83L3.13-0.83Q4.18-0.83 4.35 0.49L4.35 0.49Q4.38 0.71 4.38 0.99L4.38 0.99Q4.38 2.57 3.51 2.85L3.51 2.85Q3.34 2.90 3.16 2.90L3.16 2.90Q2.21 2.90 1.96 1.76L1.96 1.76Q1.90 1.43 1.90 1.03ZM3.16-1.07L3.16-1.07Q2.26-1.07 1.65-0.45L1.65-0.45Q1.10 0.13 1.10 0.99L1.10 0.99Q1.10 2.18 1.96 2.77L1.96 2.77Q2.49 3.13 3.13 3.13L3.13 3.13Q4.04 3.13 4.64 2.49L4.64 2.49Q5.18 1.90 5.18 1.03L5.18 1.03Q5.18-0.16 4.30-0.74L4.30-0.74Q3.79-1.07 3.16-1.07Z"/><path d="M6.74 1.03L6.74 1.03Q6.74-0.44 7.54-0.76L7.54-0.76Q7.75-0.83 7.98-0.83L7.98-0.83Q9.02-0.83 9.19 0.49L9.19 0.49Q9.22 0.71 9.22 0.99L9.22 0.99Q9.22 2.57 8.35 2.85L8.35 2.85Q8.18 2.90 8.01 2.90L8.01 2.90Q7.05 2.90 6.81 1.76L6.81 1.76Q6.74 1.43 6.74 1.03ZM8.01-1.07L8.01-1.07Q7.10-1.07 6.49-0.45L6.49-0.45Q5.94 0.13 5.94 0.99L5.94 0.99Q5.94 2.18 6.81 2.77L6.81 2.77Q7.33 3.13 7.98 3.13L7.98 3.13Q8.88 3.13 9.48 2.49L9.48 2.49Q10.03 1.90 10.03 1.03L10.03 1.03Q10.03-0.16 9.15-0.74L9.15-0.74Q8.63-1.07 8.01-1.07Z"/><path d="M12.53 2.80L12.53 2.80L12.10 2.80L12.10 0.76Q12.13-0.07 12.68-0.48L12.68-0.48Q12.93-0.66 13.19-0.66L13.19-0.66Q13.66-0.66 13.84-0.14L13.84-0.14Q13.91 0.08 13.91 0.37L13.91 0.37L13.91 2.23Q13.91 2.67 13.71 2.75L13.71 2.75Q13.57 2.80 13.25 2.80L13.25 2.80L13.25 3.04L15.28 3.04Q15.28 2.83 15.14 2.81L15.14 2.81Q15.10 2.80 15.05 2.80L15.05 2.80L14.62 2.80L14.62 0.46L14.62 0.38Q14.77-0.31 15.29-0.58L15.29-0.58Q15.49-0.67 15.67-0.67L15.67-0.67Q16.15-0.67 16.35-0.17L16.35-0.17Q16.44 0.06 16.44 0.37L16.44 0.37L16.44 2.23Q16.44 2.67 16.24 2.75L16.24 2.75Q16.10 2.80 15.78 2.80L15.78 2.80L15.78 3.04L17.87 3.04Q17.87 2.83 17.73 2.81L17.73 2.81Q17.69 2.80 17.63 2.80L17.63 2.80L17.15 2.80L17.15 0.46Q17.15-0.51 16.52-0.90L16.52-0.90Q16.24-1.07 15.91-1.07L15.91-1.07Q15.19-1.07 14.75-0.40L14.75-0.40Q14.64-0.23 14.57-0.04L14.57-0.04Q14.40-0.79 13.82-1.00L13.82-1.00Q13.65-1.07 13.47-1.07L13.47-1.07Q12.79-1.07 12.35-0.49L12.35-0.49Q12.19-0.29 12.09-0.03L12.09-0.03L12.06-0.98L10.69-0.98L10.69-0.74L11.39-0.74L11.39 2.23Q11.39 2.67 11.15 2.75L11.15 2.75Q11.01 2.80 10.69 2.80L10.69 2.80L10.69 3.04L12.76 3.04Q12.76 2.84 12.62 2.81L12.62 2.81Q12.57 2.80 12.53 2.80Z"/></g></g>
<g transform="matrix(1 0 0 1 50.10611979166666 135.02284997720017)" style="" id="uidj4gebaxmz">
		
<g xml:space="preserve" style="stroke: rgb(1,109,64); stroke-width: 0; stroke-dasharray:none; stroke-linecap: butt; stroke-dashoffset: 0; stroke-linejoin: miter; stroke-miterlimit: 4; fill: rgb(15,15,15); fill-rule: nonzero; opacity: 1; white-space: pre;"><path d="M-13.00 2.60L-13.00 2.60Q-13.00 3.00-12.89 3.06L-12.89 3.06Q-12.82 3.08-12.71 3.08L-12.71 3.08L-12.71 1.30L-12.93 1.30Q-13.41 2.86-14.86 2.87L-14.86 2.87Q-16.09 2.87-16.53 1.63L-16.53 1.63Q-16.75 1.03-16.75 0.20L-16.75 0.20Q-16.75-1.56-15.77-2.19L-15.77-2.19Q-15.35-2.46-14.83-2.46L-14.83-2.46Q-13.65-2.46-13.12-1.34L-13.12-1.34Q-13.03-1.15-12.96-0.94L-12.96-0.94L-12.73-0.94L-12.76-2.67Q-12.97-2.67-13.02-2.54L-13.02-2.54Q-13.05-2.43-13.05-2.17L-13.05-2.17Q-13.32-2.45-13.98-2.62L-13.98-2.62Q-14.42-2.72-14.87-2.72L-14.87-2.72Q-16.36-2.72-17.15-1.62L-17.15-1.62Q-17.70-0.83-17.70 0.19L-17.70 0.19Q-17.70 1.42-16.94 2.26L-16.94 2.26Q-16.12 3.13-14.82 3.13L-14.82 3.13Q-13.87 3.12-13.00 2.60Z"/><path d="M-11.10 1.03L-11.10 1.03Q-11.10-0.44-10.30-0.76L-10.30-0.76Q-10.09-0.83-9.86-0.83L-9.86-0.83Q-8.82-0.83-8.65 0.49L-8.65 0.49Q-8.62 0.71-8.62 0.99L-8.62 0.99Q-8.62 2.57-9.49 2.85L-9.49 2.85Q-9.66 2.90-9.84 2.90L-9.84 2.90Q-10.79 2.90-11.04 1.76L-11.04 1.76Q-11.10 1.43-11.10 1.03ZM-9.84-1.07L-9.84-1.07Q-10.74-1.07-11.35-0.45L-11.35-0.45Q-11.90 0.13-11.90 0.99L-11.90 0.99Q-11.90 2.18-11.04 2.77L-11.04 2.77Q-10.51 3.13-9.86 3.13L-9.86 3.13Q-8.96 3.13-8.36 2.49L-8.36 2.49Q-7.82 1.90-7.82 1.03L-7.82 1.03Q-7.82-0.16-8.69-0.74L-8.69-0.74Q-9.21-1.07-9.84-1.07Z"/><path d="M-5.31 2.80L-5.31 2.80L-5.74 2.80L-5.74 0.76Q-5.71-0.07-5.16-0.48L-5.16-0.48Q-4.91-0.66-4.65-0.66L-4.65-0.66Q-4.18-0.66-4.00-0.14L-4.00-0.14Q-3.93 0.08-3.93 0.37L-3.93 0.37L-3.93 2.23Q-3.93 2.67-4.13 2.75L-4.13 2.75Q-4.27 2.80-4.59 2.80L-4.59 2.80L-4.59 3.04L-2.56 3.04Q-2.56 2.83-2.70 2.81L-2.70 2.81Q-2.74 2.80-2.79 2.80L-2.79 2.80L-3.22 2.80L-3.22 0.46L-3.22 0.38Q-3.07-0.31-2.55-0.58L-2.55-0.58Q-2.35-0.67-2.17-0.67L-2.17-0.67Q-1.69-0.67-1.49-0.17L-1.49-0.17Q-1.40 0.06-1.40 0.37L-1.40 0.37L-1.40 2.23Q-1.40 2.67-1.60 2.75L-1.60 2.75Q-1.74 2.80-2.06 2.80L-2.06 2.80L-2.06 3.04L0.03 3.04Q0.03 2.83-0.11 2.81L-0.11 2.81Q-0.15 2.80-0.21 2.80L-0.21 2.80L-0.69 2.80L-0.69 0.46Q-0.69-0.51-1.32-0.90L-1.32-0.90Q-1.60-1.07-1.94-1.07L-1.94-1.07Q-2.65-1.07-3.09-0.40L-3.09-0.40Q-3.20-0.23-3.28-0.04L-3.28-0.04Q-3.45-0.79-4.02-1.00L-4.02-1.00Q-4.19-1.07-4.37-1.07L-4.37-1.07Q-5.05-1.07-5.49-0.49L-5.49-0.49Q-5.65-0.29-5.75-0.03L-5.75-0.03L-5.79-0.98L-7.16-0.98L-7.16-0.74L-6.45-0.74L-6.45 2.23Q-6.45 2.67-6.69 2.75L-6.69 2.75Q-6.83 2.80-7.16 2.80L-7.16 2.80L-7.16 3.04L-5.08 3.04Q-5.08 2.84-5.22 2.81L-5.22 2.81Q-5.27 2.80-5.31 2.80Z"/><path d="M2.39 2.80L2.39 2.80L1.96 2.80L1.96 0.76Q1.99-0.07 2.54-0.48L2.54-0.48Q2.79-0.66 3.05-0.66L3.05-0.66Q3.52-0.66 3.70-0.14L3.70-0.14Q3.78 0.08 3.78 0.37L3.78 0.37L3.78 2.23Q3.78 2.67 3.57 2.75L3.57 2.75Q3.44 2.80 3.12 2.80L3.12 2.80L3.12 3.04L5.14 3.04Q5.14 2.83 5.00 2.81L5.00 2.81Q4.97 2.80 4.91 2.80L4.91 2.80L4.48 2.80L4.48 0.46L4.48 0.38Q4.64-0.31 5.15-0.58L5.15-0.58Q5.35-0.67 5.53-0.67L5.53-0.67Q6.01-0.67 6.21-0.17L6.21-0.17Q6.31 0.06 6.31 0.37L6.31 0.37L6.31 2.23Q6.31 2.67 6.10 2.75L6.10 2.75Q5.97 2.80 5.65 2.80L5.65 2.80L5.65 3.04L7.73 3.04Q7.73 2.83 7.59 2.81L7.59 2.81Q7.55 2.80 7.50 2.80L7.50 2.80L7.01 2.80L7.01 0.46Q7.01-0.51 6.38-0.90L6.38-0.90Q6.10-1.07 5.77-1.07L5.77-1.07Q5.05-1.07 4.62-0.40L4.62-0.40Q4.50-0.23 4.43-0.04L4.43-0.04Q4.26-0.79 3.68-1.00L3.68-1.00Q3.51-1.07 3.33-1.07L3.33-1.07Q2.65-1.07 2.21-0.49L2.21-0.49Q2.05-0.29 1.95-0.03L1.95-0.03L1.92-0.98L0.55-0.98L0.55-0.74L1.26-0.74L1.26 2.23Q1.26 2.67 1.01 2.75L1.01 2.75Q0.87 2.80 0.55 2.80L0.55 2.80L0.55 3.04L2.62 3.04Q2.62 2.84 2.48 2.81L2.48 2.81Q2.44 2.80 2.39 2.80Z"/><path d="M9.15 1.03L9.15 1.03Q9.15-0.44 9.95-0.76L9.95-0.76Q10.16-0.83 10.38-0.83L10.38-0.83Q11.43-0.83 11.60 0.49L11.60 0.49Q11.63 0.71 11.63 0.99L11.63 0.99Q11.63 2.57 10.76 2.85L10.76 2.85Q10.59 2.90 10.41 2.90L10.41 2.90Q9.46 2.90 9.21 1.76L9.21 1.76Q9.15 1.43 9.15 1.03ZM10.41-1.07L10.41-1.07Q9.51-1.07 8.90-0.45L8.90-0.45Q8.35 0.13 8.35 0.99L8.35 0.99Q8.35 2.18 9.21 2.77L9.21 2.77Q9.74 3.13 10.38 3.13L10.38 3.13Q11.29 3.13 11.89 2.49L11.89 2.49Q12.43 1.90 12.43 1.03L12.43 1.03Q12.43-0.16 11.55-0.74L11.55-0.74Q11.04-1.07 10.41-1.07Z"/><path d="M14.93 2.80L14.93 2.80L14.51 2.80L14.51 0.76Q14.54-0.12 15.13-0.50L15.13-0.50Q15.39-0.66 15.65-0.66L15.65-0.66Q16.23-0.66 16.44-0.13L16.44-0.13Q16.52 0.09 16.52 0.37L16.52 0.37L16.52 2.23Q16.52 2.67 16.27 2.75L16.27 2.75Q16.13 2.80 15.81 2.80L15.81 2.80L15.81 3.04L17.94 3.04Q17.94 2.83 17.79 2.81L17.79 2.81Q17.76 2.80 17.70 2.80L17.70 2.80L17.23 2.80L17.23 0.46Q17.23-0.48 16.58-0.89L16.58-0.89Q16.27-1.07 15.93-1.07L15.93-1.07Q15.23-1.07 14.77-0.51L14.77-0.51Q14.60-0.30 14.50-0.03L14.50-0.03L14.46-0.98L13.09-0.98L13.09-0.74L13.80-0.74L13.80 2.23Q13.80 2.67 13.56 2.75L13.56 2.75Q13.41 2.80 13.09 2.80L13.09 2.80L13.09 3.04L15.17 3.04Q15.17 2.83 15.03 2.81L15.03 2.81Q14.99 2.80 14.93 2.80Z"/></g></g>
<g transform="matrix(1 0 0 1 149.28532635801415 135.92333333333335)" style="" id="uid8485qksgy">
		
<g xml:space="preserve" style="stroke: rgb(1,109,64); stroke-width: 0; stroke-dasharray:none; stroke-linecap: butt; stroke-dashoffset: 0; stroke-linejoin: miter; stroke-miterlimit: 4; fill: rgb(15,15,15); fill-rule: nonzero; opacity: 1; white-space: pre;"><path d="M-15.14 3.04L-12.82 3.04Q-12.82 2.83-12.98 2.80L-12.98 2.80Q-13.02 2.79-13.07 2.79L-13.07 2.79L-13.57 2.79L-13.57 0.59L-13.08 0.13L-10.84 3.04L-9.53 3.04Q-9.53 2.83-9.68 2.80L-9.68 2.80Q-9.73 2.79-9.78 2.79L-9.78 2.79L-10.03 2.79L-12.49-0.42L-10.81-1.99Q-10.46-2.32-10.28-2.36L-10.28-2.36Q-10.20-2.38-10.11-2.38L-10.11-2.38Q-9.90-2.38-9.87-2.53L-9.87-2.53Q-9.86-2.58-9.86-2.63L-9.86-2.63L-11.56-2.63L-11.56-2.38L-10.80-2.38L-13.57 0.17L-13.57-2.38L-12.82-2.38L-12.82-2.63L-15.14-2.63L-15.14-2.38L-14.38-2.38L-14.38 2.79L-15.14 2.79L-15.14 3.04Z"/><path d="M-7.31 2.80L-7.31 2.80L-7.78 2.80L-7.78-0.98L-9.25-0.98L-9.25-0.74L-8.49-0.74L-8.49 2.23Q-8.49 2.67-8.78 2.76L-8.78 2.76Q-8.93 2.80-9.25 2.80L-9.25 2.80L-9.25 3.04L-7.08 3.04Q-7.08 2.83-7.22 2.81L-7.22 2.81Q-7.26 2.80-7.31 2.80ZM-7.67-2.35L-7.67-2.35Q-7.67-2.68-7.96-2.83L-7.96-2.83Q-8.08-2.87-8.18-2.87L-8.18-2.87Q-8.51-2.87-8.65-2.57L-8.65-2.57Q-8.70-2.47-8.70-2.35L-8.70-2.35Q-8.70-2.00-8.39-1.87L-8.39-1.87Q-8.28-1.83-8.18-1.83L-8.18-1.83Q-7.85-1.83-7.72-2.14L-7.72-2.14Q-7.67-2.24-7.67-2.35Z"/><path d="M-6.60-0.98L-6.60-0.74L-5.94-0.74L-5.94 1.92Q-5.88 3.10-4.86 3.14L-4.86 3.14Q-3.99 3.14-3.77 2.07L-3.77 2.07Q-3.77 2.06-3.77 2.05L-3.77 2.05L-4.03 2.01Q-4.26 2.79-4.72 2.86L-4.72 2.86Q-5.23 2.84-5.23 2.13L-5.23 2.13L-5.23-0.74L-3.77-0.74L-3.77-0.98L-5.23-0.98L-5.23-2.07L-5.94-1.87L-5.94-0.98L-6.60-0.98Z"/><path d="M-3.35 1.07L-3.35 1.07Q-3.35 2.22-2.51 2.78L-2.51 2.78Q-1.99 3.13-1.33 3.13L-1.33 3.13Q-0.34 3.13 0.16 2.44L0.16 2.44Q0.27 2.28 0.34 2.12L0.34 2.12L0.09 2.04Q-0.26 2.78-1.06 2.86L-1.06 2.86Q-1.14 2.87-1.21 2.87L-1.21 2.87Q-1.88 2.87-2.26 2.20L-2.26 2.20Q-2.54 1.69-2.54 0.99L-2.54 0.99Q-2.54-0.25-1.89-0.66L-1.89-0.66Q-1.62-0.83-1.29-0.83L-1.29-0.83Q-0.78-0.83-0.67-0.44L-0.67-0.44Q-0.66-0.36-0.63-0.20L-0.63-0.20Q-0.57 0.18-0.42 0.27L-0.42 0.27Q-0.33 0.32-0.21 0.33L-0.21 0.33Q0.11 0.35 0.19 0.06L0.19 0.06Q0.21-0.00 0.21-0.06L0.21-0.06Q0.21-0.54-0.40-0.85L-0.40-0.85Q-0.84-1.07-1.35-1.07L-1.35-1.07Q-2.61-1.07-3.11-0.04L-3.11-0.04Q-3.35 0.45-3.35 1.07Z"/><path d="M2.57 2.80L2.57 2.80L2.10 2.80L2.10 0.76Q2.10-0.10 2.70-0.48L2.70-0.48Q2.94-0.64 3.20-0.64L3.20-0.64Q3.78-0.64 4.01-0.11L4.01-0.11Q4.11 0.15 4.11 0.46L4.11 0.46L4.11 2.23Q4.11 2.67 3.90 2.75L3.90 2.75Q3.77 2.80 3.45 2.80L3.45 2.80L3.45 3.04L5.53 3.04Q5.53 2.83 5.39 2.81L5.39 2.81Q5.35 2.80 5.29 2.80L5.29 2.80L4.82 2.80L4.82 0.46Q4.82-0.57 4.14-0.94L4.14-0.94Q3.88-1.07 3.57-1.07L3.57-1.07Q2.87-1.07 2.40-0.56L2.40-0.56Q2.20-0.34 2.10-0.07L2.10-0.07L2.10-3.10L0.68-3.10L0.68-2.86L1.39-2.86L1.39 2.23Q1.39 2.67 1.15 2.75L1.15 2.75Q1.01 2.80 0.68 2.80L0.68 2.80L0.68 3.04L2.81 3.04Q2.81 2.83 2.67 2.81L2.67 2.81Q2.63 2.80 2.57 2.80Z"/><path d="M8.12-0.83L8.12-0.83Q8.78-0.83 9.00-0.28L9.00-0.28Q9.08-0.10 9.08 0.11L9.08 0.11Q9.08 0.58 8.62 0.69L8.62 0.69Q8.39 0.73 7.95 0.72L7.95 0.72L6.95 0.70Q7.00-0.39 7.66-0.72L7.66-0.72Q7.88-0.83 8.12-0.83ZM9.77 2.13L9.77 2.13L9.53 2.05Q9.20 2.76 8.46 2.86L8.46 2.86Q8.37 2.87 8.28 2.87L8.28 2.87Q7.29 2.87 7.04 1.69L7.04 1.69Q6.96 1.36 6.95 0.96L6.95 0.96L8.09 0.98Q9.24 1.00 9.57 0.76L9.57 0.76Q9.82 0.57 9.82 0.22L9.82 0.22Q9.82-0.42 9.17-0.80L9.17-0.80Q8.71-1.07 8.10-1.07L8.10-1.07Q6.92-1.07 6.41-0.09L6.41-0.09Q6.15 0.42 6.15 1.06L6.15 1.06Q6.15 2.23 6.99 2.80L6.99 2.80Q7.49 3.13 8.13 3.13L8.13 3.13Q9.15 3.13 9.63 2.39L9.63 2.39Q9.71 2.26 9.77 2.13Z"/><path d="M12.28 2.80L12.28 2.80L11.85 2.80L11.85 0.76Q11.88-0.12 12.48-0.50L12.48-0.50Q12.73-0.66 12.99-0.66L12.99-0.66Q13.57-0.66 13.78-0.13L13.78-0.13Q13.86 0.09 13.86 0.37L13.86 0.37L13.86 2.23Q13.86 2.67 13.62 2.75L13.62 2.75Q13.48 2.80 13.15 2.80L13.15 2.80L13.15 3.04L15.28 3.04Q15.28 2.83 15.14 2.81L15.14 2.81Q15.10 2.80 15.04 2.80L15.04 2.80L14.57 2.80L14.57 0.46Q14.57-0.48 13.92-0.89L13.92-0.89Q13.62-1.07 13.27-1.07L13.27-1.07Q12.57-1.07 12.12-0.51L12.12-0.51Q11.95-0.30 11.84-0.03L11.84-0.03L11.80-0.98L10.44-0.98L10.44-0.74L11.14-0.74L11.14 2.23Q11.14 2.67 10.90 2.75L10.90 2.75Q10.76 2.80 10.44 2.80L10.44 2.80L10.44 3.04L12.51 3.04Q12.51 2.83 12.37 2.81L12.37 2.81Q12.33 2.80 12.28 2.80Z"/></g></g>
</svg>